<?xml version="1.0" standalone="no"?>
<!DOCTYPE svg PUBLIC "-//W3C//DTD SVG 20010904//EN"
 "http://www.w3.org/TR/2001/REC-SVG-20010904/DTD/svg10.dtd">
<svg version="1.0" xmlns="http://www.w3.org/2000/svg"
 width="720.000000pt" height="720.000000pt" viewBox="0 0 720.000000 720.000000"
 preserveAspectRatio="xMidYMid meet">

<g transform="translate(0.000000,720.000000) scale(0.100000,-0.100000)"
fill="#000000" stroke="none">
<path d="M0 3600 l0 -3600 3600 0 3600 0 0 3600 0 3600 -3600 0 -3600 0 0
-3600z m3326 2448 c26 -9 41 -9 74 2 30 10 46 11 58 3 60 -37 148 -76 177 -78
32 -2 118 -40 159 -70 18 -14 18 -16 -9 -52 -44 -60 -55 -66 -76 -44 -10 11
-25 34 -33 53 -9 20 -15 26 -15 15 -1 -20 34 -92 49 -102 6 -4 2 -18 -12 -38
l-22 -31 26 19 c15 11 28 23 28 28 0 13 20 8 20 -6 0 -20 -139 -153 -148 -142
-5 6 -39 49 -76 97 -37 48 -70 87 -74 86 -4 -1 -17 3 -29 10 -19 10 -23 10
-23 0 -1 -7 -8 -1 -16 15 -8 15 -19 27 -24 27 -6 0 -10 6 -10 14 0 8 -7 16
-15 20 -18 7 -20 32 -2 39 7 3 5 6 -6 6 -10 1 -34 -6 -55 -14 l-37 -15 25 20
c14 11 30 20 37 20 13 0 33 31 33 49 0 14 -53 41 -80 41 -27 0 -26 14 3 28 29
14 35 14 73 0z m254 -2 c0 -3 -4 -8 -10 -11 -5 -3 -10 -1 -10 4 0 6 5 11 10
11 6 0 10 -2 10 -4z m46 -21 c-22 -17 -36 -19 -36 -7 0 14 12 22 34 22 21 -1
21 -1 2 -15z m59 -15 c4 -6 -7 -10 -27 -9 -27 0 -30 2 -13 9 27 12 33 12 40 0z
m-377 -171 c31 -57 53 -79 77 -79 19 0 28 -10 43 -42 21 -47 53 -80 74 -77 29
4 39 -3 64 -41 21 -31 33 -40 55 -40 19 0 29 -5 29 -14 0 -22 38 -30 64 -13
13 9 41 17 62 19 38 3 42 7 127 133 112 167 106 161 148 140 39 -21 317 -197
483 -307 65 -44 125 -77 132 -74 8 3 32 34 54 68 22 35 40 56 40 47 0 -9 -11
-33 -25 -54 -15 -20 -24 -40 -21 -43 7 -6 52 22 90 57 l29 26 -22 -32 c-12
-18 -26 -35 -32 -39 -6 -3 -3 -12 8 -21 17 -13 16 -14 -8 -9 -29 6 -92 -11
-87 -25 3 -7 260 -174 450 -292 l78 -48 2 -186 3 -186 37 -13 c33 -11 46 -10
120 13 46 14 95 31 110 39 53 27 140 185 158 285 19 112 21 119 37 119 14 0
15 -10 9 -70 l-6 -71 61 43 c54 38 100 87 135 144 21 35 26 6 6 -38 -18 -40
-57 -81 -166 -171 -26 -21 -53 -52 -62 -69 -20 -39 -47 -128 -40 -135 2 -3 35
7 73 23 84 33 188 42 253 21 l45 -15 -70 -1 c-114 -2 -197 -25 -314 -87 -58
-31 -110 -60 -115 -64 -4 -5 41 -32 100 -61 95 -46 117 -53 173 -54 37 0 66
-5 68 -12 8 -22 -85 -31 -146 -13 -19 5 -36 8 -38 7 -1 -2 6 -46 17 -98 10
-51 21 -138 23 -192 4 -86 8 -101 31 -132 36 -46 59 -102 46 -110 -6 -3 -10
-1 -10 5 0 12 -79 100 -90 100 -11 0 -73 -142 -105 -239 -29 -88 -71 -143
-134 -176 -49 -25 -38 3 23 60 44 41 57 61 71 110 9 33 35 105 57 160 39 99
39 102 36 212 -2 61 -6 114 -10 118 -4 4 -19 -2 -35 -12 -15 -11 -36 -23 -45
-26 -10 -4 -18 -16 -18 -28 0 -21 1 -21 19 -5 17 16 19 16 25 -6 3 -13 6 -65
6 -116 l0 -92 -170 -184 -170 -184 2 -293 3 -292 28 39 c35 52 38 143 6 205
-11 23 -18 43 -15 46 10 10 56 -101 56 -137 1 -33 1 -34 16 -15 18 25 36 87
39 145 4 57 5 60 14 30 13 -46 -9 -138 -51 -217 l-41 -76 72 5 c92 7 80 -12
-13 -21 -77 -8 -95 -22 -107 -83 -11 -56 -11 -299 0 -316 15 -25 88 60 108
125 9 32 18 51 20 43 2 -8 -3 -36 -11 -63 -18 -62 -1 -64 46 -5 53 66 85 98
100 98 7 -1 0 -11 -15 -24 -16 -12 -39 -40 -52 -62 -14 -22 -51 -57 -92 -84
-114 -76 -113 -72 -113 -450 0 -316 0 -317 -22 -337 -13 -11 -279 -197 -592
-413 l-568 -393 -212 -24 -211 -23 -210 20 c-115 11 -221 24 -235 29 -26 8
-1127 767 -1167 804 -22 20 -23 26 -23 218 0 217 -14 322 -52 392 -18 33 -38
50 -92 78 -41 22 -84 54 -104 79 -19 23 -46 46 -60 51 -23 9 -30 4 -73 -43
-27 -28 -51 -49 -54 -46 -3 3 11 22 30 42 19 21 35 41 35 45 0 5 -21 18 -47
29 -35 16 -42 21 -25 22 13 0 33 -6 45 -12 12 -7 39 -13 59 -13 l37 -1 -16 30
c-29 57 -61 92 -102 111 -23 10 -41 22 -41 27 0 11 7 10 41 -8 17 -8 33 -13
36 -10 3 3 -7 26 -22 51 -15 26 -25 49 -22 51 7 8 45 -49 69 -103 l22 -48 13
44 c15 53 40 83 28 36 -22 -96 -20 -113 29 -184 58 -85 69 -94 135 -116 31
-10 66 -30 82 -47 l26 -30 12 33 c8 22 11 191 11 546 l0 514 -27 35 -27 36 40
-8 c21 -3 41 -9 44 -11 3 -3 7 -59 9 -125 2 -95 7 -124 20 -137 9 -9 26 -30
38 -46 l22 -30 1 28 c0 15 5 27 11 27 7 0 9 -12 5 -36 -5 -23 -1 -53 10 -87
l18 -52 9 33 c6 18 23 42 39 53 16 12 35 35 43 52 12 29 13 30 14 8 1 -15 -14
-40 -39 -67 -36 -39 -40 -49 -40 -96 0 -29 5 -70 11 -91 l10 -38 44 48 c30 32
47 61 51 86 8 47 24 48 24 1 0 -36 0 -37 35 -31 19 3 35 2 35 -3 0 -9 -14 -14
-67 -25 -66 -13 -118 -106 -109 -194 4 -43 2 -63 -12 -87 -9 -17 -30 -55 -46
-84 -15 -30 -43 -76 -61 -104 -54 -83 -65 -162 -65 -486 0 -277 0 -278 23
-292 12 -8 274 -134 582 -280 l560 -266 210 -36 210 -37 215 40 215 40 550
262 c303 144 560 269 573 277 l23 15 -2 426 c-1 333 -4 433 -14 458 -23 55
-100 130 -141 136 -36 6 -64 22 -64 37 0 5 14 2 30 -7 51 -25 60 -13 39 49
-10 29 -18 61 -19 71 0 29 18 10 25 -26 11 -50 60 -137 104 -185 l40 -44 3
479 c2 263 3 479 3 480 -1 1 -34 -8 -75 -21 -170 -54 -499 -111 -780 -135
-424 -37 -1071 -39 -1440 -5 -275 26 -374 22 -481 -18 -21 -7 -36 -5 -69 12
-41 21 -44 21 -75 5 -31 -18 -32 -17 -75 14 -23 17 -72 39 -109 50 -174 50
-205 56 -312 53 -79 -3 -116 1 -144 12 -22 9 -66 16 -105 16 -72 0 -100 6
-100 22 0 5 24 6 60 2 73 -8 79 7 20 49 -22 16 -64 55 -92 88 -59 67 -106 98
-188 124 -70 23 -150 62 -150 75 0 14 8 13 49 -10 34 -19 182 -63 189 -56 1 2
-18 45 -43 96 -25 52 -45 103 -45 114 -1 12 -7 32 -15 46 -8 14 -14 36 -15 48
0 43 23 17 45 -49 54 -159 124 -267 237 -366 140 -124 141 -124 167 -134 29
-12 171 -24 171 -15 0 3 -36 45 -80 92 l-80 86 0 241 0 240 39 37 c43 41 119
80 221 115 l65 22 3 182 2 181 73 46 c39 26 164 105 275 178 201 129 203 131
175 143 -15 6 -41 9 -58 7 -28 -4 -28 -4 -7 6 l24 10 -31 35 c-17 20 -31 39
-31 43 0 4 8 -2 18 -14 21 -25 76 -64 91 -64 7 0 0 17 -14 37 -14 21 -25 47
-25 58 0 13 10 3 29 -30 30 -52 91 -117 91 -98 0 6 -5 13 -12 15 -25 9 664
428 703 428 5 0 18 -14 27 -31z m548 20 c4 -6 -14 -32 -40 -58 -38 -38 -48
-43 -56 -31 -7 11 1 26 32 57 45 46 53 50 64 32z m52 -60 l23 -27 -31 -36
c-36 -41 -46 -43 -78 -18 l-23 18 42 47 c23 27 42 47 43 45 0 -2 11 -15 24
-29z m-98 -90 c0 -6 -6 -16 -12 -23 -7 -7 -24 -28 -38 -46 -53 -71 -66 -83
-84 -77 -16 7 -16 8 1 30 85 107 133 149 133 116z m35 -19 c9 -14 -51 -107
-69 -107 -16 0 -13 9 22 75 23 42 35 51 47 32z m-400 -2236 c10 -11 15 -11 18
-1 3 6 6 2 6 -9 1 -12 8 -39 17 -60 13 -31 15 -61 10 -154 -3 -63 -6 -137 -7
-165 l-2 -50 -8 40 c-5 26 -6 5 -3 -60 2 -55 4 -128 4 -163 0 -51 3 -64 18
-68 9 -3 35 -13 57 -24 22 -10 50 -21 61 -24 12 -4 29 -15 39 -26 40 -44 43
-31 41 200 0 120 -4 212 -8 202 -4 -10 -7 5 -7 34 -1 28 -4 67 -7 85 l-6 34
21 -30 c12 -17 21 -47 22 -70 1 -22 3 -31 6 -20 8 39 26 75 35 75 6 0 8 -11 6
-25 -3 -14 -1 -28 3 -31 5 -3 10 -69 11 -147 l1 -142 7 160 c7 176 2 198 -48
193 -14 -2 -27 3 -30 11 -3 10 5 12 37 7 41 -5 41 -5 42 27 l1 32 10 -35 c5
-19 10 -91 10 -160 l1 -125 8 105 c5 58 10 124 11 146 2 24 11 51 22 62 14 16
16 27 9 48 -10 31 -43 40 -80 22 -26 -13 -57 -3 -48 14 4 7 -3 2 -14 -11 -23
-26 -25 -38 -12 -74 8 -21 7 -25 -7 -22 -14 2 -16 11 -14 46 2 24 9 51 17 59
8 9 19 41 24 71 5 30 9 43 10 29 1 -14 6 -32 11 -40 8 -12 10 -12 10 5 0 16 2
17 9 6 5 -8 24 -22 42 -30 18 -9 42 -31 53 -50 17 -30 18 -38 7 -82 -7 -27
-12 -88 -11 -136 1 -48 1 -153 -1 -233 -3 -140 -3 -142 -9 -55 -6 81 -6 74 -8
-66 -2 -171 -3 -169 57 -169 15 0 31 -4 37 -9 5 -4 27 -13 49 -18 22 -6 47
-13 55 -17 13 -5 15 9 15 99 0 81 -3 104 -12 100 -10 -3 -13 30 -15 148 -3
206 -3 199 23 256 26 54 35 61 42 34 2 -10 8 2 12 27 l9 45 8 -41 c7 -33 15
-45 38 -54 54 -22 61 -57 55 -266 -3 -103 -7 -190 -10 -192 -3 -3 -5 17 -6 44
-1 93 -16 14 -21 -112 l-5 -120 58 -18 c33 -9 64 -14 70 -11 6 4 16 0 22 -7 7
-8 38 -20 70 -27 31 -7 84 -23 117 -37 33 -13 68 -24 77 -24 10 -1 31 -6 46
-13 60 -26 -75 -13 -163 16 -103 33 -174 47 -190 37 -9 -6 -9 -10 1 -16 8 -5
19 -9 24 -9 6 0 44 -9 85 -20 55 -15 68 -21 48 -23 -16 -2 -28 -8 -28 -13 0
-5 -4 -9 -10 -9 -5 0 -10 7 -10 15 0 8 -4 15 -9 15 -5 0 -17 3 -27 7 -14 5
-16 2 -10 -20 7 -30 1 -32 -41 -16 -15 6 -37 15 -48 19 -11 5 -34 11 -52 14
l-31 5 -2 -97 c0 -53 -5 -124 -9 -157 l-8 -60 -3 85 -3 85 -7 -90 c-4 -49 -11
-128 -16 -175 l-8 -85 -7 55 c-4 30 -11 146 -15 257 -8 226 -2 213 -75 185
-20 -8 -38 -7 -69 4 -27 10 -58 12 -90 8 -49 -6 -49 -7 -54 -48 -3 -22 -8 -97
-11 -166 -3 -69 -8 -152 -12 -185 l-7 -60 -7 45 c-4 25 -9 90 -10 145 -1 75
-4 89 -8 55 l-7 -45 -8 35 c-5 19 -8 83 -8 142 2 140 -7 151 -98 125 -26 -8
-58 -10 -75 -6 l-30 7 28 1 c15 0 27 6 27 11 0 17 -24 22 -53 11 -31 -12 -33
-9 -10 15 16 15 16 17 -2 30 -25 19 -36 9 -36 -34 0 -20 -3 -71 -8 -112 l-8
-75 -1 83 c-1 47 -6 82 -12 82 -6 0 -10 -31 -10 -72 0 -92 -21 -528 -26 -547
-3 -8 -6 -12 -8 -10 -6 6 -35 308 -47 500 -11 165 -13 178 -33 187 -11 5 -41
19 -66 31 l-45 21 38 -5 c28 -5 37 -2 37 8 0 25 -26 38 -87 42 -32 3 -70 7
-84 10 -33 7 -33 5 -49 -205 -6 -85 -13 -188 -16 -228 -3 -39 -9 -70 -14 -67
-4 2 -11 -30 -14 -73 -4 -42 -9 -90 -11 -107 -2 -16 -4 -48 -5 -70 -1 -22 -3
-35 -5 -30 -8 19 -35 432 -36 541 -1 88 -3 100 -10 64 -4 -25 -9 -70 -10 -100
-1 -30 -5 22 -9 117 -3 95 -8 175 -11 178 -3 3 -37 12 -75 21 -38 10 -83 27
-100 40 -17 13 -44 26 -60 30 -16 4 -38 13 -49 20 -11 8 -29 14 -40 14 -46 0
-98 28 -116 61 -26 48 -24 85 6 115 21 21 32 25 63 20 20 -3 58 -7 84 -8 27
-2 50 -8 53 -15 2 -7 13 -13 24 -13 11 0 22 -4 25 -9 10 -15 98 -30 142 -24
l41 5 -7 40 c-4 22 -4 56 1 76 5 20 9 62 10 92 1 30 4 46 6 35 7 -29 22 -45
37 -39 7 3 27 -11 45 -31 21 -24 31 -30 31 -19 0 33 29 -6 33 -44 l4 -37 1 43
c1 23 6 42 11 42 5 0 12 10 15 23 2 12 3 -27 2 -88 -2 -60 -6 -117 -10 -126
-6 -14 5 -18 74 -29 47 -7 90 -20 104 -31 13 -11 27 -19 31 -19 11 0 -2 238
-19 340 -22 137 -21 177 9 215 19 26 29 31 50 27 27 -5 58 -39 49 -54 -11 -17
-35 -7 -46 20 l-11 27 -10 -27 c-6 -14 -20 -31 -31 -37 -18 -10 -15 -10 17 -6
36 6 37 5 38 -27 l2 -33 6 32 c3 19 10 29 16 25 12 -8 11 -6 14 -114 3 -114
19 -71 22 56 1 74 5 96 15 96 8 0 14 -4 14 -10 0 -5 5 -9 12 -7 7 1 15 -11 19
-28 6 -27 7 -25 8 15 1 47 -20 91 -42 89 -9 0 -9 -2 1 -6 6 -2 12 -9 12 -14 0
-16 -36 -10 -58 11 -11 11 -28 17 -36 14 -28 -11 -17 5 14 21 23 12 33 27 43
63 12 47 12 47 15 13 2 -19 10 -40 17 -47z m-342 -194 c5 -48 4 -53 -8 -37
-11 15 -17 17 -34 7 -28 -15 -101 -10 -101 7 0 18 41 26 74 13 16 -6 31 -8 34
-6 6 6 -43 26 -64 26 -19 0 -57 -19 -66 -34 -6 -8 -8 -8 -8 0 0 18 24 33 61
40 19 4 40 11 47 17 8 6 12 6 12 -2 0 -20 32 -12 37 9 7 28 9 24 16 -40z m24
-107 c-3 -10 -5 -4 -5 12 0 17 2 24 5 18 2 -7 2 -21 0 -30z m-87 -33 c-13 -24
-23 -25 -39 -6 -10 12 -8 13 8 9 12 -3 21 -1 21 6 0 6 5 11 10 11 7 0 7 -6 0
-20z m50 -10 c0 -13 -28 -25 -38 -16 -3 4 0 11 8 16 20 13 30 12 30 0z m-672
-142 c-2 -13 -11 -24 -21 -26 -22 -4 -35 27 -16 39 25 16 41 10 37 -13z m-63
1 c10 -15 -1 -23 -20 -15 -9 3 -13 10 -10 16 8 13 22 13 30 -1z m73 -65 c39
-27 23 -61 -24 -50 -17 5 -24 13 -24 30 0 39 13 44 48 20z m190 -151 c2 -8 -6
-13 -22 -13 -17 0 -26 5 -26 16 0 19 41 16 48 -3z m537 -143 c3 -5 1 -10 -4
-10 -6 0 -11 5 -11 10 0 6 2 10 4 10 3 0 8 -4 11 -10z m1376 -244 c44 -18 111
-28 104 -15 -8 12 -8 12 40 -6 40 -14 40 -14 -35 -9 -90 6 -98 8 -130 21 -14
5 -32 13 -40 16 -10 4 -8 6 6 6 12 1 37 -5 55 -13z m169 4 c0 -13 -11 -13 -30
0 -12 8 -11 10 8 10 12 0 22 -4 22 -10z m-246 -36 c16 -6 23 -34 8 -34 -10 0
-32 22 -32 32 0 10 3 10 24 2z m-49 -14 c3 -6 -1 -7 -9 -4 -18 7 -21 14 -7 14
6 0 13 -4 16 -10z m410 0 c3 -6 17 -7 29 -4 16 4 25 0 29 -10 10 -24 -54 -21
-83 4 -23 20 -23 20 -2 20 11 0 24 -5 27 -10z m-1495 -689 c0 -5 -9 -7 -20 -4
-29 8 -25 -12 5 -25 29 -13 31 -24 10 -42 -17 -14 -45 -7 -44 12 0 10 2 10 6
1 6 -15 29 -17 38 -3 3 5 -5 15 -19 22 -34 15 -35 48 -1 48 14 0 25 -4 25 -9z
m37 -53 c-2 -13 -4 -3 -4 22 0 25 2 35 4 23 2 -13 2 -33 0 -45z m57 35 l15
-28 1 28 c0 15 5 27 10 27 13 0 13 -77 0 -85 -5 -3 -18 11 -27 31 l-18 37 -6
-39 -6 -39 -2 48 c-1 53 11 60 33 20z m115 10 c0 -11 -3 -13 -6 -5 -2 6 -13
12 -24 12 -14 0 -19 -7 -19 -29 0 -35 15 -48 35 -31 9 7 15 8 15 2 0 -13 -26
-23 -45 -16 -10 4 -15 20 -15 45 0 37 2 39 30 39 22 0 30 -5 29 -17z m54 10
c-13 -2 -23 -9 -23 -14 0 -5 10 -14 23 -19 l22 -9 -22 0 c-13 -1 -23 -6 -23
-11 0 -6 10 -15 23 -20 22 -10 22 -10 -3 -7 -22 2 -25 7 -28 45 -3 40 -2 42
25 41 24 -2 24 -2 6 -6z m122 -4 c4 -6 -2 -21 -14 -33 -26 -27 -26 -33 -3 -39
10 -3 6 -5 -10 -6 -34 -1 -38 23 -8 41 27 17 27 42 0 35 -11 -3 -18 -1 -14 4
7 12 41 11 49 -2z m73 -31 c-2 -34 -7 -43 -22 -43 -26 0 -40 26 -32 58 5 20
13 27 32 27 23 0 25 -3 22 -42z m52 3 c0 -22 5 -42 13 -44 6 -3 -1 -5 -18 -5
-16 0 -24 2 -17 5 6 2 12 20 12 39 0 24 -4 33 -12 28 -7 -4 -8 -3 -4 4 14 24
26 11 26 -27z m86 -3 c2 -29 -1 -38 -17 -43 -21 -7 -39 1 -39 17 0 7 5 6 15
-2 15 -12 35 -6 35 11 0 5 -8 9 -17 9 -13 0 -14 3 -5 12 18 18 14 31 -8 25
-11 -3 -17 -1 -14 5 3 5 15 8 27 6 17 -2 22 -11 23 -40z"/>
<path d="M3318 6004 c12 -8 22 -25 22 -37 1 -21 1 -21 12 -3 9 16 7 23 -12 38
-12 10 -27 18 -33 18 -6 0 -1 -7 11 -16z"/>
<path d="M3375 6010 c3 -5 8 -10 11 -10 2 0 4 5 4 10 0 6 -5 10 -11 10 -5 0
-7 -4 -4 -10z"/>
<path d="M3518 5938 c-18 -22 -17 -35 1 -23 15 8 34 45 24 45 -4 0 -16 -10
-25 -22z"/>
<path d="M3456 5897 c5 -15 3 -16 -21 -7 -14 5 -27 10 -29 10 -1 0 -2 -9 -3
-19 -1 -17 3 -19 35 -14 47 7 49 10 28 31 -16 16 -17 16 -10 -1z"/>
<path d="M3690 5872 c0 -4 4 -13 9 -20 7 -11 9 -11 14 1 3 9 -1 18 -9 21 -8 3
-14 2 -14 -2z"/>
<path d="M3740 5865 c-10 -12 -10 -15 3 -15 8 0 17 7 21 15 3 8 2 15 -3 15 -5
0 -14 -7 -21 -15z"/>
<path d="M2951 5396 c-192 -112 -211 -126 -187 -132 61 -15 134 3 239 59 148
79 226 91 267 41 17 -19 127 -74 150 -74 9 0 26 -7 39 -16 20 -14 29 -15 65
-4 22 7 46 15 51 19 22 17 44 19 69 6 60 -32 93 -34 148 -13 86 33 121 51 157
83 30 26 42 30 89 29 47 -1 74 -11 175 -64 100 -52 131 -63 184 -68 35 -2 63
-1 63 4 -1 5 -98 65 -217 133 -210 120 -218 124 -252 114 -20 -6 -116 -38
-213 -72 l-177 -61 -207 70 c-114 39 -212 70 -218 70 -6 0 -107 -56 -225 -124z"/>
<path d="M3985 5370 c-3 -6 1 -7 9 -4 18 7 21 14 7 14 -6 0 -13 -4 -16 -10z"/>
<path d="M2665 5360 c3 -5 8 -10 11 -10 2 0 4 5 4 10 0 6 -5 10 -11 10 -5 0
-7 -4 -4 -10z"/>
<path d="M4650 5359 c0 -5 5 -7 10 -4 6 3 10 8 10 11 0 2 -4 4 -10 4 -5 0 -10
-5 -10 -11z"/>
<path d="M3093 5310 c-40 -15 -88 -37 -107 -49 -49 -31 -123 -121 -143 -176
-10 -27 -24 -50 -30 -52 -9 -3 -9 5 2 31 20 48 20 49 -26 41 -30 -5 -52 -18
-79 -46 -23 -25 -46 -39 -61 -39 -21 1 -20 3 10 16 39 16 35 24 -17 40 -29 8
-43 8 -65 -3 -38 -19 -45 -10 -11 12 24 15 34 16 77 6 43 -10 52 -9 75 8 15
10 42 22 61 26 31 7 121 77 121 96 0 4 -24 8 -52 8 -29 0 -71 6 -93 13 -38 13
-43 12 -95 -15 -30 -15 -62 -36 -71 -47 -9 -10 -18 -17 -21 -15 -2 2 -125 -66
-273 -153 l-270 -157 -3 -69 -3 -68 28 7 c237 61 612 111 1000 135 222 13 884
13 1106 0 349 -21 752 -73 938 -120 43 -11 80 -20 83 -20 3 0 6 29 6 65 0 77
43 44 -378 289 l-302 176 -46 -11 c-24 -6 -65 -9 -89 -6 -25 2 -45 2 -45 -2 0
-21 85 -91 121 -101 22 -6 54 -19 70 -29 24 -15 37 -16 77 -8 40 9 52 7 75 -8
35 -23 28 -31 -10 -12 -24 13 -36 13 -76 3 -51 -13 -50 -23 4 -45 l24 -10 -24
0 c-16 -1 -37 13 -61 38 -27 28 -49 41 -80 46 -46 8 -46 8 -24 -62 5 -16 4
-16 -10 2 -9 10 -20 34 -25 52 -12 42 -95 137 -147 168 -56 33 -170 75 -204
75 -15 0 -35 -9 -46 -21 -26 -29 -81 -63 -126 -78 -20 -7 -49 -22 -64 -33 -21
-17 -30 -19 -45 -10 -10 7 -36 12 -57 12 -26 0 -45 7 -57 20 l-18 20 -22 -20
c-14 -13 -35 -20 -63 -20 -22 0 -44 -4 -47 -10 -10 -16 -37 -12 -59 8 -12 10
-42 26 -68 36 -25 9 -67 35 -91 57 -54 47 -75 48 -174 9z"/>
<path d="M3340 4679 c0 -5 5 -7 10 -4 6 3 10 8 10 11 0 2 -4 4 -10 4 -5 0 -10
-5 -10 -11z"/>
<path d="M3985 4680 c-3 -5 -2 -10 4 -10 5 0 13 5 16 10 3 6 2 10 -4 10 -5 0
-13 -4 -16 -10z"/>
<path d="M4695 4658 c-16 -27 -19 -29 -25 -14 -5 14 -10 10 -24 -23 -11 -22
-23 -38 -27 -35 -14 8 -58 -48 -71 -91 -6 -22 -16 -44 -21 -50 -7 -7 -8 -4 -4
8 16 45 -15 -1 -52 -77 -44 -89 -51 -112 -25 -80 14 18 15 18 9 -6 -4 -14 -14
-36 -24 -50 -21 -30 -76 -180 -73 -197 1 -6 -2 -14 -8 -18 -16 -10 -12 -39 9
-57 21 -17 19 -50 -4 -78 -31 -39 -25 -42 15 -7 35 29 46 35 48 23 2 -9 8 -14
13 -11 5 4 9 1 9 -5 0 -6 10 -4 24 5 24 16 24 16 19 -7 -4 -14 12 1 40 38 26
34 54 67 64 75 15 12 16 12 10 -6 -4 -12 8 -4 29 20 19 22 54 57 77 78 23 21
35 35 27 31 -8 -4 8 17 35 46 35 37 43 49 25 40 -24 -12 -24 -11 5 20 17 17
43 38 58 47 16 8 27 17 24 19 -3 3 -19 -2 -36 -10 -16 -9 -46 -18 -65 -20 -49
-7 -95 -32 -134 -75 -23 -24 -32 -30 -27 -16 4 12 -16 -1 -49 -34 l-55 -54 21
69 c23 78 59 153 94 201 13 17 24 36 24 42 0 5 9 25 19 43 11 18 27 51 36 73
14 35 14 38 0 21 -13 -18 -15 -18 -15 -2 0 9 7 31 16 49 l15 32 -20 -25 c-27
-33 -26 -22 3 45 27 60 22 74 -9 23z"/>
<path d="M2775 4675 c-5 -2 -32 -6 -59 -10 -35 -5 -45 -9 -35 -16 12 -7 12 -9
-2 -9 -19 0 -167 -72 -194 -94 -19 -16 -18 -16 15 -1 l35 16 -34 -28 c-84 -68
-89 -74 -31 -43 62 34 92 41 41 9 -18 -11 -30 -23 -27 -26 4 -4 -19 -34 -51
-66 -63 -65 -59 -65 32 -2 33 23 76 50 95 59 l35 18 -30 -26 c-17 -15 -22 -23
-12 -20 16 6 16 3 -3 -34 -12 -23 -18 -47 -14 -53 5 -8 3 -9 -5 -5 -8 5 -11 3
-10 -5 2 -8 -8 -45 -23 -84 -22 -61 -38 -107 -55 -165 -4 -13 -4 -13 6 0 8 12
11 12 11 1 0 -11 3 -11 16 0 40 33 -30 -74 -80 -124 l-55 -53 86 44 c47 25 83
39 79 33 -10 -16 -1 -14 45 10 23 11 38 15 34 9 -10 -16 19 -1 117 62 45 29
75 54 71 61 -4 7 0 8 11 4 9 -4 15 -3 12 2 -7 11 72 64 84 56 10 -6 181 151
172 159 -3 3 0 6 6 6 15 0 75 108 69 124 -4 10 6 15 38 18 24 1 54 1 66 -2 19
-5 16 -8 -20 -20 -49 -16 -66 -33 -21 -20 55 16 62 4 31 -53 -21 -39 -44 -63
-92 -94 -107 -71 -110 -74 -69 -62 19 6 49 12 67 14 l31 3 -18 -51 c-10 -29
-21 -61 -26 -71 -6 -15 -4 -17 6 -11 10 6 11 4 5 -11 -4 -10 -8 -29 -9 -41 -1
-12 -19 -40 -41 -63 -21 -22 -35 -40 -30 -40 5 0 -7 -17 -26 -37 l-34 -37 45
34 c42 31 40 28 -20 -35 -36 -37 -58 -64 -50 -60 63 37 219 137 238 154 12 11
22 17 22 13 0 -4 4 -2 8 4 4 6 27 20 52 31 71 32 131 63 185 93 27 16 51 27
54 25 2 -2 16 2 32 10 34 18 42 19 33 3 -4 -8 -3 -10 2 -5 5 5 9 14 9 20 0 7
7 12 15 12 22 0 64 37 68 58 8 44 -63 87 -143 87 l-57 0 31 25 c16 14 38 28
49 30 17 3 142 85 129 85 -3 0 8 13 24 29 35 35 37 60 6 89 -53 50 -111 58
-256 36 -27 -4 -33 -2 -28 9 7 19 -17 29 -32 14 -8 -8 -11 -8 -11 2 0 19 -55
-17 -74 -50 -12 -20 -32 -33 -71 -45 -30 -10 -52 -20 -50 -24 3 -4 -14 -16
-37 -26 -35 -16 -42 -16 -46 -4 -9 25 -86 100 -107 104 -11 2 -42 13 -70 23
-32 13 -66 18 -95 16 -33 -3 -41 -1 -30 6 13 9 12 11 -5 10 -11 0 -24 -2 -30
-4z m159 -140 c20 -8 36 -17 36 -20 0 -21 -34 -69 -80 -113 -30 -29 -49 -51
-43 -47 23 11 3 -19 -30 -45 -17 -14 -27 -18 -22 -10 11 19 -16 -3 -113 -92
-41 -38 -78 -68 -83 -68 -5 0 -1 17 10 38 10 20 22 52 26 70 3 18 10 30 15 27
7 -4 29 41 71 147 13 34 15 49 7 54 -7 5 -8 3 -3 -6 5 -8 4 -11 -3 -6 -22 13
0 34 59 55 32 12 63 20 67 17 4 -2 14 -1 22 5 20 12 22 11 64 -6z m616 10 c0
-5 -56 -35 -67 -36 -15 -2 -62 -33 -58 -39 2 -3 -9 -14 -26 -24 -34 -20 -37
-9 -8 28 11 14 17 26 13 26 -5 0 -3 5 3 11 18 18 143 48 143 34z m-110 -270
c5 -3 10 -10 10 -14 0 -8 -51 -33 -67 -33 -4 0 -45 -20 -90 -45 -46 -24 -83
-43 -83 -40 0 2 8 13 18 25 24 29 41 53 55 82 7 13 23 27 37 30 29 8 105 4
120 -5z"/>
<path d="M3986 4644 c-20 -19 -36 -39 -36 -43 0 -4 -24 -16 -54 -26 -30 -10
-53 -22 -51 -26 3 -4 -22 -17 -55 -29 -33 -12 -60 -24 -60 -27 0 -2 8 -2 18 1
30 10 106 13 126 6 15 -5 9 -10 -28 -24 -53 -21 -57 -31 -6 -16 19 6 38 6 43
1 10 -10 -38 -111 -53 -111 -5 0 -18 -9 -29 -21 -11 -13 -24 -18 -32 -14 -7 5
-10 4 -6 -2 3 -5 -13 -21 -36 -34 -37 -21 -39 -24 -19 -27 13 -2 20 -8 16 -14
-4 -7 -2 -8 5 -4 6 4 9 12 6 17 -4 5 -3 10 2 10 51 7 73 8 69 1 -2 -4 -16 -39
-30 -76 -20 -52 -22 -65 -10 -55 15 12 15 10 0 -24 -8 -21 -11 -35 -6 -32 21
13 8 -7 -31 -50 -23 -25 -38 -45 -33 -45 4 0 -8 -16 -27 -37 l-34 -36 40 28
c36 26 34 22 -20 -35 -33 -35 -49 -56 -35 -47 14 9 73 46 133 82 59 37 107 70
107 74 0 7 96 56 110 56 4 0 46 22 93 48 47 26 95 50 107 52 11 2 38 14 58 27
32 19 35 20 22 3 -11 -14 -7 -13 18 5 47 34 65 66 52 89 -19 36 -73 61 -134
61 l-57 0 34 30 c19 17 41 30 48 30 17 0 93 53 136 95 46 44 49 68 16 100 -57
54 -122 64 -255 39 -19 -4 -27 -1 -30 12 -6 32 -53 26 -92 -12z m204 -104 c-8
-6 -39 -22 -68 -36 -29 -14 -50 -29 -48 -33 2 -3 -9 -14 -25 -23 -32 -19 -37
-12 -14 18 8 10 15 27 15 36 0 11 11 20 28 24 15 3 38 10 52 14 14 5 36 9 50
9 20 1 22 -1 10 -9z m-170 -251 c-12 -9 -10 -10 9 -6 13 3 35 1 50 -4 l26 -11
-24 -19 c-13 -10 -30 -19 -39 -19 -8 0 -53 -20 -98 -46 -46 -25 -84 -40 -84
-34 0 6 7 13 15 16 8 4 15 12 15 20 0 8 4 14 9 14 5 0 18 16 28 37 12 25 29
40 53 48 45 16 59 17 40 4z m-290 -283 c0 -2 -8 -10 -17 -17 -16 -13 -17 -12
-4 4 13 16 21 21 21 13z"/>
<path d="M2628 4643 c6 -2 18 -2 25 0 6 3 1 5 -13 5 -14 0 -19 -2 -12 -5z"/>
<path d="M5532 4549 c17 -23 24 -49 28 -102 l5 -72 19 28 c19 27 19 30 2 83
-17 54 -45 94 -66 94 -6 0 0 -14 12 -31z"/>
<path d="M1750 4236 c0 -3 10 -29 21 -58 12 -29 25 -64 29 -78 8 -23 8 -24 9
-3 1 26 -36 130 -50 138 -5 4 -9 4 -9 1z"/>
<path d="M3463 4129 c-18 -12 -33 -23 -33 -25 0 -7 58 25 65 36 9 14 5 13 -32
-11z"/>
<path d="M4113 4130 c-34 -20 -47 -38 -15 -21 23 13 58 40 52 41 -3 0 -20 -9
-37 -20z"/>
<path d="M1811 4055 c-1 -26 23 -114 38 -143 6 -12 18 -22 26 -22 20 0 19 6
-6 42 -12 16 -30 55 -39 86 -10 31 -19 48 -19 37z"/>
<path d="M4325 3930 c-3 -5 -1 -10 4 -10 6 0 11 5 11 10 0 6 -2 10 -4 10 -3 0
-8 -4 -11 -10z"/>
<path d="M2020 3368 c0 -81 4 -120 14 -133 13 -17 14 -16 27 18 7 20 16 34 20
31 4 -2 1 -24 -8 -48 -16 -42 -15 -45 5 -84 12 -23 35 -60 53 -84 l32 -43 -6
90 c-3 50 -13 113 -22 140 -21 61 -94 213 -106 221 -5 3 -9 -45 -9 -108z"/>
<path d="M2020 3149 l0 -66 30 5 c17 2 30 5 30 6 0 0 -13 28 -30 61 l-29 60
-1 -66z"/>
<path d="M2020 2913 l0 -157 25 35 c14 19 44 61 65 94 36 56 39 64 30 97 -14
50 -52 88 -90 88 l-30 0 0 -157z"/>
<path d="M2050 2758 c-11 -18 -20 -37 -20 -42 0 -12 1 -10 28 37 26 45 19 50
-8 5z"/>
<path d="M3746 3381 c-3 -5 9 -9 28 -9 19 0 41 -3 48 -7 7 -3 4 1 -6 9 -22 17
-62 21 -70 7z"/>
<path d="M4053 3145 c-26 -25 -29 -45 -11 -63 16 -16 28 -15 28 3 0 8 -4 15
-10 15 -5 0 -10 6 -10 14 0 22 31 28 52 9 16 -15 17 -18 3 -25 -22 -13 -18
-25 10 -30 18 -4 25 -1 25 10 0 12 3 13 11 5 6 -6 14 -44 18 -84 l7 -74 6 100
c7 97 6 101 -17 125 -19 19 -27 22 -37 12 -14 -14 -52 -16 -43 -2 11 18 -9 9
-32 -15z m108 -15 c26 -14 24 -32 -3 -28 -13 2 -24 11 -26 21 -4 20 2 21 29 7z"/>
<path d="M2966 3095 c-3 -10 -3 -34 1 -54 l7 -36 7 30 c5 25 7 20 9 -25 4 -94
18 -115 19 -28 1 45 -3 80 -10 83 -6 4 -14 16 -18 28 -7 19 -8 19 -15 2z"/>
<path d="M4088 2898 c4 -192 9 -215 10 -52 2 112 5 144 17 154 22 18 18 30 -7
30 -23 0 -23 -1 -20 -132z"/>
<path d="M3331 2824 c0 -11 3 -14 6 -6 3 7 2 16 -1 19 -3 4 -6 -2 -5 -13z"/>
<path d="M4063 2595 c0 -27 2 -38 4 -22 2 15 2 37 0 50 -2 12 -4 0 -4 -28z"/>
<path d="M3290 2586 c0 -8 5 -18 10 -21 6 -3 10 3 10 14 0 12 -4 21 -10 21 -5
0 -10 -6 -10 -14z"/>
<path d="M3886 2522 c-10 -17 32 -39 85 -44 74 -7 87 0 43 24 -39 21 -120 33
-128 20z"/>
<path d="M3441 2504 c0 -11 3 -14 6 -6 3 7 2 16 -1 19 -3 4 -6 -2 -5 -13z"/>
<path d="M4175 2440 c28 -12 55 -12 55 0 0 6 -17 10 -37 9 -31 0 -34 -2 -18
-9z"/>
<path d="M3735 1619 c-10 -16 4 -61 18 -56 19 6 22 67 3 67 -8 0 -18 -5 -21
-11z"/>
</g>
</svg>
